<svg xmlns="http://www.w3.org/2000/svg" height="48" viewBox="0 -960 960 960" width="48"><path d="M480.134-104q-77.313 0-146.39-29.359-69.077-29.36-120.025-80.262-50.947-50.902-80.333-119.917Q104-402.554 104-479.866q0-77.313 29.359-146.39 29.36-69.077 80.262-120.025 50.902-50.947 119.917-80.333Q402.554-856 479.866-856q77.313 0 146.39 29.359 69.077 29.36 120.025 80.262 50.947 50.902 80.333 119.917Q856-557.446 856-480.134q0 77.313-29.359 146.39-29.36 69.077-80.262 120.025-50.902 50.947-119.917 80.333Q557.446-104 480.134-104ZM480-147.769q138.76 0 235.495-96.736Q812.231-341.24 812.231-480q0-61.171-21.539-116.739-21.538-55.569-61.615-102.338L260.923-230.923q45.769 41.077 101.662 62.115Q418.479-147.769 480-147.769ZM231.154-260.923l467.923-467.923q-45.231-41.077-101.434-62.231Q541.441-812.231 480-812.231q-138.76 0-235.495 96.736Q147.769-618.76 147.769-480q0 61.521 22.269 117.415 22.27 55.893 61.116 101.662Z"/></svg>