<svg xmlns="http://www.w3.org/2000/svg" height="48" viewBox="0 -960 960 960" width="48"><path d="M458.615-458.615H246.384q-9.538 0-15.961-6.67Q224-471.954 224-480.9q0-8.946 6.423-15.215 6.423-6.27 15.961-6.27h212.231v-212.231q0-8.988 6.468-15.686T480.198-737q8.648 0 15.417 6.698 6.77 6.698 6.77 15.686v212.231h212.231q8.563 0 14.974 6.485 6.41 6.486 6.41 15.432 0 8.946-6.41 15.399-6.411 6.454-14.974 6.454H502.385v212.231q0 8.563-6.76 14.974-6.761 6.41-15.841 6.41-8.655 0-14.912-6.41-6.257-6.411-6.257-14.974v-212.231Z"/></svg>