<svg xmlns="http://www.w3.org/2000/svg" height="48" viewBox="0 -960 960 960" width="48"><path d="M685.902-296.692q-68.825 0-119.133-44.769-50.308-44.77-63.231-117.154H268.077q-7.385 28.23-30.841 48.73-23.457 20.5-56.313 20.5-37.366 0-63.991-26.616-26.624-26.616-26.624-63.971 0-37.354 26.624-63.999 26.625-26.644 63.991-26.644 32.856 0 56.313 20 23.456 20 30.841 48.23h235.461q12.923-72.384 63.231-116.654 50.308-44.269 119.133-44.269 76.843 0 130.202 54.101 53.358 54.1 53.358 130.654 0 75.015-53.358 128.438-53.359 53.423-130.202 53.423Zm.134-43.77q58.118 0 98.887-40.651 40.769-40.652 40.769-98.769 0-58.118-40.651-98.887-40.652-40.769-98.77-40.769-58.117 0-98.886 40.651-40.77 40.652-40.77 98.769 0 58.118 40.652 98.887t98.769 40.769Z"/></svg>