<svg xmlns="http://www.w3.org/2000/svg" height="48" viewBox="0 -960 960 960" width="48"><path d="M483.077-183q-123.25 0-209.625-86.839-86.375-86.84-86.375-209.039 0-122.199 86.375-210.161Q359.827-777 483.456-777q77.467 0 140.929 36.807 63.461 36.808 105.769 98.654v-114.077q0-8.832 6.279-15.108Q742.711-777 751.548-777t15.606 6.276q6.769 6.276 6.769 15.108v168.001q0 15.038-10.102 24.865-10.102 9.827-24.59 9.827h-168q-8.833 0-15.109-6.48-6.276-6.481-6.276-15.616t6.276-15.404q6.276-6.269 15.109-6.269h136.615q-36.154-61.539-93.384-97.539-57.231-36-131.385-36-106.135 0-179.183 72.806-73.048 72.805-73.048 178.307 0 106.503 73.048 179.426 73.048 72.923 179.183 72.923 73.622 0 136.495-39.854 62.874-39.853 93.351-108.762 3.923-8.384 12.039-11.576 8.115-3.193 17.415-.5 8.7 2.692 11.508 11.192t-.116 16.115q-35.846 81.077-108.975 129.116Q571.664-183 483.077-183Z"/></svg>