<svg xmlns="http://www.w3.org/2000/svg" height="48" viewBox="0 -960 960 960" width="48"><path d="M278-265q-89.583 0-152.292-62.707Q63-390.414 63-479.995q0-89.582 62.708-152.294Q188.417-695 278-695h404q89.583 0 152.292 62.707Q897-569.586 897-480.005q0 89.582-62.708 152.294Q771.583-265 682-265H278Zm0-43.769h403.714q71.501 0 121.509-49.925 50.008-49.924 50.008-121.307 0-71.384-50.008-121.307t-121.509-49.923H278q-70.208 0-120.719 49.961-50.512 49.961-50.512 121.395 0 71.435 50.512 121.27Q207.792-308.769 278-308.769ZM682.109-376q43.678 0 74.285-30.1Q787-436.199 787-479.968q0-43.769-30.575-73.901Q725.85-584 682.172-584t-73.81 30.1q-30.131 30.099-30.131 73.868 0 43.769 30.099 73.901Q638.43-376 682.109-376ZM480-480Z"/></svg>